<?xml version="1.0" encoding="utf-8"?>
<!-- Generator: Adobe Illustrator 17.1.0, SVG Export Plug-In . SVG Version: 6.00 Build 0)  -->
<!DOCTYPE svg PUBLIC "-//W3C//DTD SVG 1.1//EN" "http://www.w3.org/Graphics/SVG/1.1/DTD/svg11.dtd">
<svg version="1.1" id="Layer_1" xmlns="http://www.w3.org/2000/svg" xmlns:xlink="http://www.w3.org/1999/xlink" x="0px" y="0px"
	 viewBox="0 0 211.5 52" enable-background="new 0 0 211.5 52" xml:space="preserve">
<path fill="#FC6E51" d="M125.3,20.6l11.6-15.2h8l-12.6,15.1l6.9,16.7H131L125.3,20.6"/>
<path fill="#FC6E51" d="M162.4,25.2L147,27.3v0.6c0,1.6,0.4,2.8,1.3,3.6c0.9,0.8,2.2,1.3,3.8,1.3c1.1,0,2.3-0.1,3.4-0.4
	c1.2-0.3,2.2-0.6,3.1-1l0.8,4.6c-1.3,0.6-2.7,1.1-4.3,1.4c-1.6,0.3-3.2,0.5-4.9,0.5c-3.3,0-5.8-0.9-7.5-2.7
	c-1.7-1.8-2.6-4.3-2.6-7.5c0-1.6,0.3-3.4,0.8-5.2c0.5-1.8,1.3-3.5,2.4-5.1c1.1-1.6,2.5-2.9,4.3-3.9c1.8-1,3.9-1.5,6.4-1.5
	c2.9,0,5.1,0.8,6.6,2.4c1.5,1.6,2.2,3.8,2.2,6.5C163,22.1,162.8,23.6,162.4,25.2z M155.6,17.1c-0.5-0.6-1.3-1-2.4-1
	c-1.6,0-2.9,0.7-3.9,2.1c-1,1.4-1.7,3.3-2.1,5.6l8.9-1.4c0.1-0.5,0.2-1,0.2-1.4c0-0.4,0-0.8,0-1.2C156.4,18.6,156.1,17.7,155.6,17.1
	z"/>
<path fill="#FC6E51" d="M186.3,25.2l-15.4,2.1v0.6c0,1.6,0.4,2.8,1.3,3.6c0.9,0.8,2.2,1.3,3.8,1.3c1.1,0,2.3-0.1,3.4-0.4
	c1.2-0.3,2.2-0.6,3.1-1l0.8,4.6c-1.3,0.6-2.7,1.1-4.3,1.4c-1.6,0.3-3.2,0.5-4.9,0.5c-3.3,0-5.8-0.9-7.5-2.7
	c-1.7-1.8-2.6-4.3-2.6-7.5c0-1.6,0.3-3.4,0.8-5.2c0.5-1.8,1.3-3.5,2.4-5.1c1.1-1.6,2.5-2.9,4.3-3.9c1.8-1,3.9-1.5,6.4-1.5
	c2.9,0,5.1,0.8,6.6,2.4c1.5,1.6,2.2,3.8,2.2,6.5C186.8,22.1,186.7,23.6,186.3,25.2z M179.5,17.1c-0.5-0.6-1.3-1-2.4-1
	c-1.6,0-2.9,0.7-3.9,2.1c-1,1.4-1.7,3.3-2.1,5.6l8.9-1.4c0.1-0.5,0.2-1,0.2-1.4c0-0.4,0-0.8,0-1.2C180.2,18.6,180,17.7,179.5,17.1z"
	/>
<path fill="#FC6E51" d="M210.6,27.2c-0.6,1.9-1.4,3.6-2.5,5.2c-1.1,1.6-2.6,2.8-4.3,3.8c-1.7,1-3.7,1.5-6.1,1.5
	c-0.6,0-1.2,0-1.9-0.1c-0.6-0.1-1.2-0.2-1.7-0.3l-1.9,10H185l6.5-33.6c1.5-0.6,3.1-1.1,4.7-1.4c1.6-0.3,3.2-0.4,5-0.4
	c3.3,0,5.8,0.8,7.6,2.5s2.7,4.1,2.7,7.1C211.5,23.4,211.2,25.3,210.6,27.2z M203.6,17.4c-0.6-0.9-1.6-1.3-3.1-1.3
	c-0.4,0-0.8,0-1.2,0.1c-0.4,0.1-0.7,0.2-1.1,0.3L195,33.1c0.2,0.1,0.5,0.1,0.8,0.2c0.3,0.1,0.7,0.1,1.1,0.1c2.9,0,5-1.7,6.2-5
	c0.2-0.5,0.4-1.1,0.6-1.7c0.2-0.6,0.3-1.3,0.5-1.9c0.1-0.6,0.2-1.3,0.3-1.9c0.1-0.6,0.1-1.2,0.1-1.7
	C204.5,19.5,204.2,18.3,203.6,17.4z"/>
<path fill="#FC6E51" d="M19.6,10.6c-0.6-0.2-1.2-0.3-2-0.3c-0.8,0-1.6,0.2-2.3,0.5c-0.7,0.3-1.3,0.7-1.9,1.3
	c-0.6,0.6-1.1,1.2-1.6,1.9c-0.5,0.7-0.9,1.5-1.3,2.4c-0.6,1.3-1,2.7-1.4,4.3c-0.4,1.6-0.5,3.1-0.5,4.5c0,0.9,0.1,1.8,0.3,2.6
	c0.2,0.8,0.4,1.5,0.8,2.2s0.8,1.1,1.4,1.4c0.6,0.4,1.3,0.5,2.1,0.5c0.7,0,1.4-0.1,2.1-0.3c0.7-0.2,1.3-0.5,1.9-0.8l0.8,5
	c-1,0.6-2.1,1.1-3.3,1.4c-1.2,0.3-2.5,0.5-3.9,0.5c-1.7,0-3.2-0.3-4.4-0.9c-1.2-0.6-2.3-1.5-3.1-2.6c-0.8-1.1-1.4-2.4-1.8-3.8
	C1.2,29,1,27.4,1,25.7c0-1.4,0.1-2.8,0.4-4.4c0.3-1.6,0.7-3.1,1.2-4.6c0.6-1.5,1.3-3,2.1-4.4c0.8-1.4,1.9-2.7,3.1-3.7s2.5-1.9,4-2.6
	C13.3,5.3,15,5,17,5c2.9,0,5.2,0.6,6.8,1.9l-2.5,4.5C20.7,11,20.2,10.8,19.6,10.6z"/>
<path fill="#FC6E51" d="M36.1,16.6c-0.4-0.1-0.9-0.1-1.3-0.1c-0.8,0-1.6,0.1-2.3,0.4l-4,20.5h-7.2l4.6-23.6c1.3-0.6,2.9-1.1,4.6-1.4
	c1.7-0.3,3.7-0.5,5.9-0.5c0.5,0,1.1,0,1.6,0c0.6,0,1.1,0.1,1.5,0.1L37.4,17C37,16.8,36.5,16.6,36.1,16.6z"/>
<path fill="#FC6E51" d="M59,26.7c-0.5,1.9-1.3,3.6-2.3,5.3c-1.1,1.6-2.5,3-4.3,4.1c-1.8,1.1-4,1.7-6.6,1.7c-1.5,0-2.9-0.2-4-0.7
	s-2.1-1.1-2.8-2c-0.8-0.9-1.3-1.9-1.7-3.1s-0.6-2.5-0.6-3.9c0-1.7,0.2-3.5,0.7-5.4c0.5-1.9,1.3-3.7,2.4-5.3c1.1-1.6,2.5-3,4.3-4
	c1.8-1.1,3.9-1.6,6.5-1.6c1.5,0,2.8,0.2,4,0.7c1.1,0.5,2.1,1.1,2.9,2c0.8,0.9,1.3,1.9,1.7,3.1s0.6,2.5,0.6,3.9
	C59.7,23.1,59.4,24.8,59,26.7z M52,17.5c-0.4-0.8-1.2-1.2-2.2-1.2c-1,0-1.8,0.3-2.5,1C46.6,18,46,19,45.5,20.2
	c-0.2,0.6-0.5,1.2-0.7,2c-0.2,0.7-0.4,1.5-0.6,2.3c-0.2,0.8-0.3,1.6-0.4,2.3c-0.1,0.8-0.1,1.4-0.1,2c0,1.4,0.2,2.4,0.6,3.2
	s1.2,1.2,2.2,1.2c1,0,1.8-0.4,2.5-1.1c0.7-0.7,1.3-1.7,1.9-2.9c0.2-0.6,0.5-1.2,0.7-2c0.2-0.7,0.4-1.5,0.6-2.2
	c0.2-0.8,0.3-1.5,0.4-2.2c0.1-0.7,0.1-1.4,0.1-2C52.7,19.3,52.5,18.3,52,17.5z"/>
<path fill="#FC6E51" d="M79,37.3l-0.9-13.8v-2.1c0-0.3,0-0.6,0-1.1h-0.1l-0.5,1.5c-0.2,0.5-0.4,1.1-0.6,1.6l-6.2,13.8h-6.6L62,12.4
	h7.1l0.1,14.5c0,0.6,0,1.3-0.1,1.9C69.1,29.4,69,30,69,30.6h0.1c0.2-0.6,0.4-1.2,0.6-1.8c0.2-0.6,0.5-1.2,0.8-1.9L77,12.4h5.9
	l0.7,14.5v0.7c0,0.9,0,1.9-0.1,3h0.1c0.2-0.6,0.3-1.2,0.5-1.8c0.2-0.6,0.4-1.2,0.7-1.9l5.9-14.5h6.8L85.7,37.3H79z"/>
<path fill="#FC6E51" d="M120.2,15.1L122.9,1h-7.2l-2.2,11.4c-0.3-0.1-0.5-0.1-0.7-0.1c-0.8-0.2-1.8-0.3-2.8-0.3
	c-2.4,0-4.4,0.5-6.2,1.5c-1.7,1-3.2,2.3-4.3,3.9s-2,3.3-2.6,5.2c-0.6,1.9-0.8,3.8-0.8,5.6c0,3,0.9,5.3,2.6,7
	c1.8,1.7,4.2,2.5,7.4,2.5c1.9,0,3.8-0.2,5.4-0.5c1.7-0.3,3.2-0.8,4.5-1.4l3.4-17.5c1.4,0.7,2.3,1.3,2.3,1.3c1.7-0.1,2.6-1.8,2.6-1.8
	C123,16.8,121.5,15.8,120.2,15.1z M109.5,32.9c-0.3,0.1-0.7,0.2-1,0.3c-0.4,0.1-0.8,0.1-1.2,0.1c-1.4,0-2.4-0.4-3.1-1.3
	s-1-2.1-1-3.7c0-1.2,0.2-2.6,0.5-4c0.3-1.5,0.8-2.8,1.3-3.9c0.6-1.4,1.4-2.4,2.3-3.1c0.9-0.7,2.1-1.1,3.4-1.1c0.4,0,0.7,0,1,0.1
	c0.3,0.1,0.7,0.1,1,0.2L109.5,32.9z"/>
</svg>
