<?xml version="1.0" encoding="UTF-8" standalone="no"?>
<svg width="391px" height="82px" viewBox="0 0 391 82" version="1.1" xmlns="http://www.w3.org/2000/svg" xmlns:xlink="http://www.w3.org/1999/xlink" xmlns:sketch="http://www.bohemiancoding.com/sketch/ns">
    <!-- Generator: Sketch 3.0.2 (7799) - http://www.bohemiancoding.com/sketch -->
    <title>Slice 1</title>
    <description>Created with Sketch.</description>
    <defs></defs>
    <g id="Page-1" stroke="none" stroke-width="1" fill="none" fill-rule="evenodd" sketch:type="MSPage">
        <g id="crowdkeep-logo" sketch:type="MSLayerGroup" fill="#FFFFFF">
            <path d="M220.5,34.8 L241.2,7.8 L255.5,7.8 L233.1,34.6 L245.4,64.4 L230.7,64.4 L220.5,34.8" id="Shape" sketch:type="MSShapeGroup"></path>
            <path d="M286.6,42.9 L259.2,46.7 L259.2,47.7 C259.2,50.5 260,52.7 261.6,54.2 C263.2,55.7 265.5,56.5 268.4,56.5 C270.4,56.5 272.5,56.3 274.5,55.8 C276.5,55.3 278.4,54.7 280,54 L281.4,62.2 C279.2,63.3 276.6,64.1 273.8,64.7 C270.9,65.2 268.1,65.5 265.2,65.5 C259.3,65.5 254.9,63.9 251.8,60.7 C248.7,57.5 247.2,53 247.2,47.3 C247.2,44.4 247.7,41.3 248.6,38 C249.5,34.7 250.9,31.7 252.9,29 C254.9,26.3 257.4,23.9 260.6,22.1 C263.7,20.3 267.5,19.3 272,19.3 C277.2,19.3 281.1,20.7 283.7,23.5 C286.4,26.3 287.7,30.2 287.7,35.1 C287.6,37.4 287.2,40 286.6,42.9 L286.6,42.9 Z M274.5,28.4 C273.6,27.2 272.2,26.7 270.3,26.7 C267.5,26.7 265.2,28 263.3,30.5 C261.5,33 260.2,36.3 259.6,40.5 L275.5,38 C275.7,37.1 275.8,36.3 275.8,35.5 C275.8,34.7 275.9,34 275.9,33.4 C275.8,31.2 275.4,29.6 274.5,28.4 L274.5,28.4 Z" id="Shape" sketch:type="MSShapeGroup"></path>
            <path d="M329,42.9 L301.6,46.7 L301.6,47.7 C301.6,50.5 302.4,52.7 304,54.2 C305.6,55.7 307.9,56.5 310.8,56.5 C312.8,56.5 314.9,56.3 316.9,55.8 C318.9,55.3 320.8,54.7 322.4,54 L323.8,62.2 C321.6,63.3 319,64.1 316.2,64.7 C313.3,65.2 310.5,65.5 307.6,65.5 C301.7,65.5 297.3,63.9 294.2,60.7 C291.1,57.5 289.6,53 289.6,47.3 C289.6,44.4 290.1,41.3 291,38 C291.9,34.7 293.3,31.7 295.3,29 C297.3,26.3 299.8,23.9 303,22.1 C306.1,20.3 309.9,19.3 314.4,19.3 C319.6,19.3 323.5,20.7 326.1,23.5 C328.8,26.3 330.1,30.2 330.1,35.1 C330,37.4 329.7,40 329,42.9 L329,42.9 Z M316.9,28.4 C316,27.2 314.6,26.7 312.7,26.7 C309.9,26.7 307.6,28 305.7,30.5 C303.9,33 302.6,36.3 302,40.5 L317.9,38 C318.1,37.1 318.2,36.3 318.2,35.5 C318.2,34.7 318.3,34 318.3,33.4 C318.3,31.2 317.8,29.6 316.9,28.4 L316.9,28.4 Z" id="Shape" sketch:type="MSShapeGroup"></path>
            <path d="M372.4,46.4 C371.4,49.8 369.9,52.9 367.9,55.7 C365.9,58.5 363.4,60.7 360.3,62.4 C357.2,64.1 353.6,65 349.5,65 C348.4,65 347.3,64.9 346.1,64.8 C344.9,64.7 343.9,64.5 343.1,64.2 L339.7,82.1 L326.9,82.1 L338.4,22.4 C341.1,21.2 343.9,20.4 346.7,19.9 C349.5,19.4 352.5,19.2 355.5,19.2 C361.4,19.2 365.9,20.7 369.1,23.7 C372.3,26.7 373.9,30.9 373.9,36.3 C373.9,39.6 373.4,43 372.4,46.4 L372.4,46.4 Z M359.9,29.1 C358.8,27.6 357,26.8 354.3,26.8 C353.5,26.8 352.8,26.9 352.2,27 C351.6,27.1 350.9,27.3 350.3,27.5 L344.5,56.9 C344.9,57 345.4,57.1 345.9,57.2 C346.4,57.3 347.1,57.4 347.8,57.4 C353,57.4 356.7,54.4 358.9,48.4 C359.2,47.5 359.6,46.5 359.9,45.4 C360.2,44.3 360.5,43.1 360.7,42 C360.9,40.8 361.1,39.7 361.2,38.6 C361.3,37.5 361.4,36.5 361.4,35.6 C361.5,32.8 360.9,30.6 359.9,29.1 L359.9,29.1 Z" id="Shape" sketch:type="MSShapeGroup"></path>
            <path d="M32.7,16.9 C31.7,16.6 30.5,16.4 29.1,16.4 C27.6,16.4 26.3,16.7 25,17.2 C23.8,17.7 22.6,18.5 21.6,19.5 C20.6,20.5 19.6,21.6 18.8,23 C18,24.3 17.2,25.7 16.5,27.3 C15.5,29.6 14.7,32.2 14.1,35 C13.5,37.8 13.2,40.5 13.2,43.1 C13.2,44.7 13.4,46.3 13.7,47.8 C14,49.3 14.5,50.6 15.1,51.6 C15.7,52.6 16.6,53.5 17.7,54.2 C18.7,54.8 20,55.1 21.5,55.1 C22.8,55.1 24,54.9 25.3,54.5 C26.6,54.1 27.7,53.7 28.6,53.1 L30,62.1 C28.2,63.2 26.3,64 24.1,64.6 C21.9,65.2 19.6,65.5 17.1,65.5 C14,65.5 11.4,64.9 9.2,63.8 C7,62.7 5.2,61.1 3.8,59.2 C2.4,57.3 1.3,55 0.7,52.4 C0,49.8 -0.3,47 -0.3,44.1 C-0.3,41.7 -0.1,39.1 0.4,36.3 C0.9,33.5 1.6,30.8 2.6,28 C3.6,25.3 4.8,22.6 6.3,20.1 C7.8,17.6 9.6,15.4 11.7,13.4 C13.8,11.4 16.2,9.9 18.9,8.8 C21.6,7.6 24.6,7.1 28,7.1 C33.2,7.1 37.2,8.2 40,10.4 L35.6,18.4 C34.6,17.7 33.7,17.2 32.7,16.9 L32.7,16.9 Z" id="Shape" sketch:type="MSShapeGroup"></path>
            <path d="M62,27.5 C61.2,27.4 60.5,27.3 59.7,27.3 C58.2,27.3 56.9,27.5 55.7,28 L48.6,64.4 L35.8,64.4 L43.9,22.4 C46.3,21.3 49,20.5 52.1,19.9 C55.2,19.4 58.7,19.1 62.7,19.1 C63.6,19.1 64.6,19.1 65.6,19.2 C66.6,19.3 67.5,19.3 68.3,19.4 L64.3,28.1 C63.5,27.9 62.8,27.7 62,27.5 L62,27.5 Z" id="Shape" sketch:type="MSShapeGroup"></path>
            <path d="M102.6,45.6 C101.8,48.9 100.4,52.1 98.4,55 C96.5,57.9 93.9,60.4 90.7,62.4 C87.5,64.4 83.6,65.4 79,65.4 C76.3,65.4 73.9,65 71.9,64.1 C69.9,63.2 68.2,62.1 66.8,60.5 C65.4,58.9 64.4,57.1 63.8,55 C63.2,52.9 62.8,50.6 62.8,48.1 C62.8,45.1 63.2,42 64.1,38.6 C65,35.2 66.4,32.1 68.3,29.2 C70.2,26.3 72.8,23.9 76,22 C79.2,20.1 83,19.2 87.6,19.2 C90.3,19.2 92.6,19.6 94.7,20.5 C96.8,21.4 98.4,22.5 99.8,24.1 C101.2,25.6 102.2,27.4 102.8,29.5 C103.4,31.6 103.8,33.9 103.8,36.4 C103.9,39.2 103.5,42.2 102.6,45.6 L102.6,45.6 Z M90.3,29.2 C89.5,27.8 88.2,27.1 86.4,27.1 C84.6,27.1 83.2,27.7 81.9,29 C80.7,30.2 79.6,31.9 78.7,34 C78.3,35 77.9,36.2 77.5,37.5 C77.1,38.8 76.8,40.2 76.5,41.6 C76.2,43 76,44.4 75.8,45.7 C75.6,47 75.6,48.2 75.6,49.3 C75.6,51.7 76,53.6 76.8,55 C77.6,56.4 78.9,57.1 80.7,57.1 C82.5,57.1 84,56.5 85.2,55.2 C86.5,53.9 87.6,52.2 88.5,50 C88.9,49 89.3,47.8 89.7,46.5 C90.1,45.2 90.4,43.9 90.7,42.5 C91,41.1 91.2,39.8 91.4,38.5 C91.6,37.2 91.6,36 91.6,35 C91.5,32.5 91.1,30.6 90.3,29.2 L90.3,29.2 Z" id="Shape" sketch:type="MSShapeGroup"></path>
            <path d="M138.3,64.4 L136.7,39.9 L136.7,36.2 C136.7,35.7 136.7,35.1 136.8,34.3 L136.6,34.3 L135.7,37 C135.4,37.9 135,38.9 134.6,39.9 L123.6,64.4 L111.8,64.4 L108,20.1 L120.7,20.1 L120.9,45.8 C120.9,46.9 120.8,48 120.7,49.2 C120.6,50.4 120.5,51.4 120.4,52.4 L120.6,52.4 C120.9,51.3 121.3,50.2 121.6,49.2 C122,48.2 122.4,47 123,45.8 L134.7,20.1 L145.1,20.1 L146.4,45.8 L146.4,47 C146.4,48.6 146.3,50.4 146.2,52.3 L146.4,52.3 C146.7,51.2 147,50.1 147.3,49.1 C147.7,48 148.1,46.9 148.5,45.8 L159,20.1 L171,20.1 L150.1,64.4 L138.3,64.4 L138.3,64.4 Z" id="Shape" sketch:type="MSShapeGroup"></path>
            <path d="M211.5,24.8 L216.3,-0.2 L203.5,-0.2 L199.6,20.1 C199.1,20 198.7,19.9 198.4,19.9 C196.9,19.6 195.3,19.4 193.5,19.4 C189.3,19.4 185.6,20.3 182.5,22.1 C179.4,23.9 176.8,26.2 174.8,29 C172.8,31.8 171.2,34.9 170.2,38.3 C169.2,41.7 168.7,45 168.7,48.3 C168.7,53.6 170.3,57.8 173.4,60.8 C176.5,63.8 180.9,65.3 186.6,65.3 C190.1,65.3 193.3,65 196.3,64.5 C199.3,64 201.9,63.1 204.2,62 L210.2,30.8 C212.6,32.1 214.3,33.1 214.3,33.1 C217.4,32.9 218.9,29.9 218.9,29.9 C216.4,27.9 213.9,26.2 211.5,24.8 L211.5,24.8 Z M192.6,56.5 C192.1,56.7 191.4,56.9 190.7,57 C190,57.1 189.3,57.2 188.5,57.2 C186,57.2 184.2,56.4 183.1,54.8 C182,53.2 181.4,51 181.4,48.2 C181.4,46 181.7,43.6 182.3,41 C182.9,38.4 183.7,36.1 184.6,34.1 C185.7,31.7 187.1,29.8 188.8,28.5 C190.5,27.2 192.5,26.6 194.8,26.6 C195.5,26.6 196.1,26.7 196.7,26.8 C197.3,26.9 197.9,27 198.5,27.2 L192.6,56.5 L192.6,56.5 Z" id="Shape" sketch:type="MSShapeGroup"></path>
            <path d="M380.8,18.8 L378.8,18.8 L378.8,18 L383.6,18 L383.6,18.8 L381.6,18.8 L381.6,24.1 L380.7,24.1 L380.7,18.8 L380.8,18.8 Z M385,18 L385.9,18 L388.1,21.4 L390.3,18 L391.2,18 L391.2,24.2 L390.3,24.2 L390.3,19.5 L388.1,22.8 L388,22.8 L385.8,19.5 L385.8,24.2 L385,24.2 L385,18 L385,18 Z" id="Shape" sketch:type="MSShapeGroup"></path>
        </g>
    </g>
</svg>