<?xml version="1.0" encoding="utf-8"?>
<!-- Generator: Adobe Illustrator 17.1.0, SVG Export Plug-In . SVG Version: 6.00 Build 0)  -->
<!DOCTYPE svg PUBLIC "-//W3C//DTD SVG 1.1//EN" "http://www.w3.org/Graphics/SVG/1.1/DTD/svg11.dtd">
<svg version="1.1" id="Layer_1" xmlns="http://www.w3.org/2000/svg" xmlns:xlink="http://www.w3.org/1999/xlink" x="0px" y="0px"
	 viewBox="0 0 800 800" enable-background="new 0 0 800 800" xml:space="preserve">
<path fill="#FFFFFF" d="M424.5,393.8l20.7-27h14.3l-22.4,26.8l12.3,29.8h-14.7L424.5,393.8"/>
<path fill="#FFFFFF" d="M490.6,401.9l-27.4,3.8v1c0,2.8,0.8,5,2.4,6.5s3.9,2.3,6.8,2.3c2,0,4.1-0.2,6.1-0.7s3.9-1.1,5.5-1.8l1.4,8.2
	c-2.2,1.1-4.8,1.9-7.6,2.5c-2.9,0.5-5.7,0.8-8.6,0.8c-5.9,0-10.3-1.6-13.4-4.8s-4.6-7.7-4.6-13.4c0-2.9,0.5-6,1.4-9.3
	c0.9-3.3,2.3-6.3,4.3-9s4.5-5.1,7.7-6.9c3.1-1.8,6.9-2.8,11.4-2.8c5.2,0,9.1,1.4,11.7,4.2c2.7,2.8,4,6.7,4,11.6
	C491.6,396.4,491.2,399,490.6,401.9z M478.5,387.4c-0.9-1.2-2.3-1.7-4.2-1.7c-2.8,0-5.1,1.3-7,3.8c-1.8,2.5-3.1,5.8-3.7,10l15.9-2.5
	c0.2-0.9,0.3-1.7,0.3-2.5s0.1-1.5,0.1-2.1C479.8,390.2,479.4,388.6,478.5,387.4z"/>
<path fill="#FFFFFF" d="M533,401.9l-27.4,3.8v1c0,2.8,0.8,5,2.4,6.5s3.9,2.3,6.8,2.3c2,0,4.1-0.2,6.1-0.7s3.9-1.1,5.5-1.8l1.4,8.2
	c-2.2,1.1-4.8,1.9-7.6,2.5c-2.9,0.5-5.7,0.8-8.6,0.8c-5.9,0-10.3-1.6-13.4-4.8s-4.6-7.7-4.6-13.4c0-2.9,0.5-6,1.4-9.3
	c0.9-3.3,2.3-6.3,4.3-9s4.5-5.1,7.7-6.9c3.1-1.8,6.9-2.8,11.4-2.8c5.2,0,9.1,1.4,11.7,4.2c2.7,2.8,4,6.7,4,11.6
	C534,396.4,533.7,399,533,401.9z M520.9,387.4c-0.9-1.2-2.3-1.7-4.2-1.7c-2.8,0-5.1,1.3-7,3.8c-1.8,2.5-3.1,5.8-3.7,10l15.9-2.5
	c0.2-0.9,0.3-1.7,0.3-2.5s0.1-1.5,0.1-2.1C522.3,390.2,521.8,388.6,520.9,387.4z"/>
<path fill="#FFFFFF" d="M576.4,405.4c-1,3.4-2.5,6.5-4.5,9.3s-4.5,5-7.6,6.7s-6.7,2.6-10.8,2.6c-1.1,0-2.2-0.1-3.4-0.2
	s-2.2-0.3-3-0.6l-3.4,17.9h-12.8l11.5-59.7c2.7-1.2,5.5-2,8.3-2.5c2.8-0.5,5.8-0.7,8.8-0.7c5.9,0,10.4,1.5,13.6,4.5
	s4.8,7.2,4.8,12.6C577.9,398.6,577.4,402,576.4,405.4z M563.9,388.1c-1.1-1.5-2.9-2.3-5.6-2.3c-0.8,0-1.5,0.1-2.1,0.2
	s-1.3,0.3-1.9,0.5l-5.8,29.4c0.4,0.1,0.9,0.2,1.4,0.3c0.5,0.1,1.2,0.2,1.9,0.2c5.2,0,8.9-3,11.1-9c0.3-0.9,0.7-1.9,1-3
	c0.3-1.1,0.6-2.3,0.8-3.4c0.2-1.2,0.4-2.3,0.5-3.4c0.1-1.1,0.2-2.1,0.2-3C565.5,391.8,564.9,389.6,563.9,388.1z"/>
<path fill="#FFFFFF" d="M236.7,375.9c-1-0.3-2.2-0.5-3.6-0.5c-1.5,0-2.8,0.3-4.1,0.8c-1.2,0.5-2.4,1.3-3.4,2.3s-2,2.1-2.8,3.5
	c-0.8,1.3-1.6,2.7-2.3,4.3c-1,2.3-1.8,4.9-2.4,7.7c-0.6,2.8-0.9,5.5-0.9,8.1c0,1.6,0.2,3.2,0.5,4.7c0.3,1.5,0.8,2.8,1.4,3.8
	s1.5,1.9,2.6,2.6c1,0.6,2.3,0.9,3.8,0.9c1.3,0,2.5-0.2,3.8-0.6c1.3-0.4,2.4-0.8,3.3-1.4l1.4,9c-1.8,1.1-3.7,1.9-5.9,2.5
	c-2.2,0.6-4.5,0.9-7,0.9c-3.1,0-5.7-0.6-7.9-1.7c-2.2-1.1-4-2.7-5.4-4.6c-1.4-1.9-2.5-4.2-3.1-6.8c-0.7-2.6-1-5.4-1-8.3
	c0-2.4,0.2-5,0.7-7.8c0.5-2.8,1.2-5.5,2.2-8.3c1-2.7,2.2-5.4,3.7-7.9c1.5-2.5,3.3-4.7,5.4-6.7s4.5-3.5,7.2-4.6
	c2.7-1.2,5.7-1.7,9.1-1.7c5.2,0,9.2,1.1,12,3.3l-4.4,8C238.6,376.7,237.7,376.2,236.7,375.9z"/>
<path fill="#FFFFFF" d="M266,386.5c-0.8-0.1-1.5-0.2-2.3-0.2c-1.5,0-2.8,0.2-4,0.7l-7.1,36.4h-12.8l8.1-42c2.4-1.1,5.1-1.9,8.2-2.5
	c3.1-0.5,6.6-0.8,10.6-0.8c0.9,0,1.9,0,2.9,0.1s1.9,0.1,2.7,0.2l-4,8.7C267.5,386.9,266.8,386.7,266,386.5z"/>
<path fill="#FFFFFF" d="M306.6,404.6c-0.8,3.3-2.2,6.5-4.2,9.4c-1.9,2.9-4.5,5.4-7.7,7.4c-3.2,2-7.1,3-11.7,3
	c-2.7,0-5.1-0.4-7.1-1.3s-3.7-2-5.1-3.6s-2.4-3.4-3-5.5s-1-4.4-1-6.9c0-3,0.4-6.1,1.3-9.5c0.9-3.4,2.3-6.5,4.2-9.4
	c1.9-2.9,4.5-5.3,7.7-7.2c3.2-1.9,7-2.8,11.6-2.8c2.7,0,5,0.4,7.1,1.3s3.7,2,5.1,3.6c1.4,1.5,2.4,3.3,3,5.4s1,4.4,1,6.9
	C307.9,398.2,307.5,401.2,306.6,404.6z M294.3,388.2c-0.8-1.4-2.1-2.1-3.9-2.1c-1.8,0-3.2,0.6-4.5,1.9c-1.2,1.2-2.3,2.9-3.2,5
	c-0.4,1-0.8,2.2-1.2,3.5c-0.4,1.3-0.7,2.7-1,4.1c-0.3,1.4-0.5,2.8-0.7,4.1c-0.2,1.3-0.2,2.5-0.2,3.6c0,2.4,0.4,4.3,1.2,5.7
	s2.1,2.1,3.9,2.1c1.8,0,3.3-0.6,4.5-1.9c1.3-1.3,2.4-3,3.3-5.2c0.4-1,0.8-2.2,1.2-3.5s0.7-2.6,1-4s0.5-2.7,0.7-4
	c0.2-1.3,0.2-2.5,0.2-3.5C295.5,391.5,295.1,389.6,294.3,388.2z"/>
<path fill="#FFFFFF" d="M342.3,423.4l-1.6-24.5v-3.7c0-0.5,0-1.1,0.1-1.9h-0.2l-0.9,2.7c-0.3,0.9-0.7,1.9-1.1,2.9l-11,24.5h-11.8
	l-3.8-44.3h12.7l0.2,25.7c0,1.1-0.1,2.2-0.2,3.4c-0.1,1.2-0.2,2.2-0.3,3.2h0.2c0.3-1.1,0.7-2.2,1-3.2c0.4-1,0.8-2.2,1.4-3.4
	l11.7-25.7h10.4l1.3,25.7v1.2c0,1.6-0.1,3.4-0.2,5.3h0.2c0.3-1.1,0.6-2.2,0.9-3.2c0.4-1.1,0.8-2.2,1.2-3.3l10.5-25.7h12l-20.9,44.3
	H342.3z"/>
<path fill="#FFFFFF" d="M415.5,383.8l4.8-25h-12.8l-3.9,20.3c-0.5-0.1-0.9-0.2-1.2-0.2c-1.5-0.3-3.1-0.5-4.9-0.5
	c-4.2,0-7.9,0.9-11,2.7c-3.1,1.8-5.7,4.1-7.7,6.9s-3.6,5.9-4.6,9.3c-1,3.4-1.5,6.7-1.5,10c0,5.3,1.6,9.5,4.7,12.5
	c3.1,3,7.5,4.5,13.2,4.5c3.5,0,6.7-0.3,9.7-0.8c3-0.5,5.6-1.4,7.9-2.5l6-31.2c2.4,1.3,4.1,2.3,4.1,2.3c3.1-0.2,4.6-3.2,4.6-3.2
	C420.4,386.9,417.9,385.2,415.5,383.8z M396.6,415.5c-0.5,0.2-1.2,0.4-1.9,0.5c-0.7,0.1-1.4,0.2-2.2,0.2c-2.5,0-4.3-0.8-5.4-2.4
	s-1.7-3.8-1.7-6.6c0-2.2,0.3-4.6,0.9-7.2c0.6-2.6,1.4-4.9,2.3-6.9c1.1-2.4,2.5-4.3,4.2-5.6c1.7-1.3,3.7-1.9,6-1.9
	c0.7,0,1.3,0.1,1.9,0.2c0.6,0.1,1.2,0.2,1.8,0.4L396.6,415.5z"/>
<g>
	<path fill="#FFFFFF" d="M584.8,377.8h-2V377h4.8v0.8h-2v5.3h-0.9V377.8z M589,377h0.9l2.2,3.4l2.2-3.4h0.9v6.2h-0.9v-4.7l-2.2,3.3
		h-0.1l-2.2-3.3v4.7H589V377z"/>
</g>
</svg>
